<svg xmlns="http://www.w3.org/2000/svg" viewBox="0 0 48 32" shape-rendering="crispEdges">
  <!-- Shallow horizontal tray; short stepped corners imply the top plane. -->
  <path fill="#1a1c18" d="M5 23h36v2H5z" opacity=".7"/>
  <path fill="#162638" d="M10 8h32v4h2v10h-4v2H4V18h2v-6h4z"/>
  <path fill="#47677c" d="M11 9h29v3H11zM8 13h3v5H8zM6 18h3v3H6z"/>
  <path fill="#708e9b" d="M12 9h27v1H12z"/>
  <path fill="#121e2c" d="M12 12h28v8H9v-3h3z"/>
  <path fill="#1c2e42" d="M13 14h25v5H11v-2h2z"/>
  <path fill="#223a54" d="M6 21h34v2H6zM40 12h2v9h-2z"/>
  <path fill="#47677c" d="M8 20h32v1H8z"/>
  <!-- Coins are flattened onto the tray bed, with no upright receipt. -->
  <path fill="#0a1018" d="M15 17h8v3h-8zM26 15h7v3h-7z"/>
  <path fill="#7a8a9a" d="M16 15h6v4h-6z"/>
  <path fill="#c4d1c5" d="M17 15h4v2h-4z"/>
  <path fill="#94a6b8" d="M18 16h2v1h-2z"/>
  <path fill="#784420" d="M27 14h5v3h-5z"/>
  <path fill="#b46c36" d="M28 14h3v2h-3z"/>
  <path fill="#bbab70" d="M22 18h5v1h-5z"/>
<path fill="#405e70" d="M10 13h2v5h-2z"/><path fill="#2c4659" d="M12 19h24v1H12z"/><path fill="#768d97" d="M12 10h17v1H12z"/>
</svg>
